<mxfile host="app.diagrams.net" modified="2022-06-09T06:02:47.895Z" agent="5.0 (Windows NT 10.0; Win64; x64) AppleWebKit/537.36 (KHTML, like Gecko) Chrome/102.0.5005.63 Safari/537.36" etag="sAEeapt_-qIrp6OY3TNs" version="19.0.3" type="github">
  <diagram id="QoJb_QdbUkz9qzZ3d3K9" name="第 1 页">
    <mxGraphModel dx="1044" dy="541" grid="1" gridSize="10" guides="1" tooltips="1" connect="1" arrows="1" fold="1" page="1" pageScale="1" pageWidth="3300" pageHeight="4681" math="0" shadow="0">
      <root>
        <mxCell id="0" />
        <mxCell id="1" parent="0" />
        <mxCell id="Zp1FLDR9F9NkYNsXSm17-7" style="edgeStyle=orthogonalEdgeStyle;rounded=0;orthogonalLoop=1;jettySize=auto;html=1;exitX=0.5;exitY=1;exitDx=0;exitDy=0;" edge="1" parent="1" source="Zp1FLDR9F9NkYNsXSm17-1" target="Zp1FLDR9F9NkYNsXSm17-2">
          <mxGeometry relative="1" as="geometry" />
        </mxCell>
        <mxCell id="Zp1FLDR9F9NkYNsXSm17-1" value="LoginEvent" style="rounded=1;whiteSpace=wrap;html=1;" vertex="1" parent="1">
          <mxGeometry x="180" y="90" width="110" height="40" as="geometry" />
        </mxCell>
        <mxCell id="Zp1FLDR9F9NkYNsXSm17-8" style="edgeStyle=orthogonalEdgeStyle;rounded=0;orthogonalLoop=1;jettySize=auto;html=1;exitX=0.5;exitY=1;exitDx=0;exitDy=0;entryX=0.5;entryY=0;entryDx=0;entryDy=0;" edge="1" parent="1" source="Zp1FLDR9F9NkYNsXSm17-2" target="Zp1FLDR9F9NkYNsXSm17-3">
          <mxGeometry relative="1" as="geometry" />
        </mxCell>
        <mxCell id="Zp1FLDR9F9NkYNsXSm17-14" style="edgeStyle=orthogonalEdgeStyle;rounded=0;orthogonalLoop=1;jettySize=auto;html=1;exitX=0;exitY=0.5;exitDx=0;exitDy=0;entryX=0;entryY=0.5;entryDx=0;entryDy=0;" edge="1" parent="1" source="Zp1FLDR9F9NkYNsXSm17-2" target="Zp1FLDR9F9NkYNsXSm17-12">
          <mxGeometry relative="1" as="geometry">
            <Array as="points">
              <mxPoint x="100" y="190" />
              <mxPoint x="100" y="570" />
            </Array>
          </mxGeometry>
        </mxCell>
        <mxCell id="Zp1FLDR9F9NkYNsXSm17-2" value="判断当前是否在&lt;br&gt;预约奖励配置" style="shape=parallelogram;perimeter=parallelogramPerimeter;whiteSpace=wrap;html=1;fixedSize=1;" vertex="1" parent="1">
          <mxGeometry x="175" y="160" width="120" height="60" as="geometry" />
        </mxCell>
        <mxCell id="Zp1FLDR9F9NkYNsXSm17-9" style="edgeStyle=orthogonalEdgeStyle;rounded=0;orthogonalLoop=1;jettySize=auto;html=1;exitX=0.5;exitY=1;exitDx=0;exitDy=0;" edge="1" parent="1" source="Zp1FLDR9F9NkYNsXSm17-3" target="Zp1FLDR9F9NkYNsXSm17-4">
          <mxGeometry relative="1" as="geometry" />
        </mxCell>
        <mxCell id="Zp1FLDR9F9NkYNsXSm17-3" value="获取玩家预约奖励" style="rounded=0;whiteSpace=wrap;html=1;" vertex="1" parent="1">
          <mxGeometry x="175" y="250" width="110" height="50" as="geometry" />
        </mxCell>
        <mxCell id="Zp1FLDR9F9NkYNsXSm17-10" style="edgeStyle=orthogonalEdgeStyle;rounded=0;orthogonalLoop=1;jettySize=auto;html=1;exitX=0.5;exitY=1;exitDx=0;exitDy=0;entryX=0.5;entryY=0;entryDx=0;entryDy=0;" edge="1" parent="1" source="Zp1FLDR9F9NkYNsXSm17-4" target="Zp1FLDR9F9NkYNsXSm17-5">
          <mxGeometry relative="1" as="geometry" />
        </mxCell>
        <mxCell id="Zp1FLDR9F9NkYNsXSm17-15" style="edgeStyle=orthogonalEdgeStyle;rounded=0;orthogonalLoop=1;jettySize=auto;html=1;exitX=0;exitY=0.5;exitDx=0;exitDy=0;entryX=0;entryY=0.5;entryDx=0;entryDy=0;" edge="1" parent="1" source="Zp1FLDR9F9NkYNsXSm17-4" target="Zp1FLDR9F9NkYNsXSm17-12">
          <mxGeometry relative="1" as="geometry">
            <Array as="points">
              <mxPoint x="100" y="355" />
              <mxPoint x="100" y="570" />
            </Array>
          </mxGeometry>
        </mxCell>
        <mxCell id="Zp1FLDR9F9NkYNsXSm17-4" value="是否已参与" style="shape=parallelogram;perimeter=parallelogramPerimeter;whiteSpace=wrap;html=1;fixedSize=1;" vertex="1" parent="1">
          <mxGeometry x="170" y="330" width="120" height="50" as="geometry" />
        </mxCell>
        <mxCell id="Zp1FLDR9F9NkYNsXSm17-11" style="edgeStyle=orthogonalEdgeStyle;rounded=0;orthogonalLoop=1;jettySize=auto;html=1;exitX=0.5;exitY=1;exitDx=0;exitDy=0;" edge="1" parent="1" source="Zp1FLDR9F9NkYNsXSm17-5" target="Zp1FLDR9F9NkYNsXSm17-6">
          <mxGeometry relative="1" as="geometry" />
        </mxCell>
        <mxCell id="Zp1FLDR9F9NkYNsXSm17-5" value="发送邮件奖励" style="rounded=0;whiteSpace=wrap;html=1;" vertex="1" parent="1">
          <mxGeometry x="172.5" y="410" width="105" height="40" as="geometry" />
        </mxCell>
        <mxCell id="Zp1FLDR9F9NkYNsXSm17-13" style="edgeStyle=orthogonalEdgeStyle;rounded=0;orthogonalLoop=1;jettySize=auto;html=1;exitX=0.5;exitY=1;exitDx=0;exitDy=0;entryX=0.5;entryY=0;entryDx=0;entryDy=0;" edge="1" parent="1" source="Zp1FLDR9F9NkYNsXSm17-6" target="Zp1FLDR9F9NkYNsXSm17-12">
          <mxGeometry relative="1" as="geometry" />
        </mxCell>
        <mxCell id="Zp1FLDR9F9NkYNsXSm17-6" value="记录参与情况" style="rounded=0;whiteSpace=wrap;html=1;" vertex="1" parent="1">
          <mxGeometry x="175" y="480" width="100" height="40" as="geometry" />
        </mxCell>
        <mxCell id="Zp1FLDR9F9NkYNsXSm17-12" value="结束" style="rounded=1;whiteSpace=wrap;html=1;" vertex="1" parent="1">
          <mxGeometry x="165" y="550" width="120" height="40" as="geometry" />
        </mxCell>
        <mxCell id="Zp1FLDR9F9NkYNsXSm17-16" value="否" style="text;html=1;align=center;verticalAlign=middle;resizable=0;points=[];autosize=1;strokeColor=none;fillColor=none;" vertex="1" parent="1">
          <mxGeometry x="125" y="170" width="30" height="20" as="geometry" />
        </mxCell>
        <mxCell id="Zp1FLDR9F9NkYNsXSm17-17" value="是" style="text;html=1;align=center;verticalAlign=middle;resizable=0;points=[];autosize=1;strokeColor=none;fillColor=none;" vertex="1" parent="1">
          <mxGeometry x="125" y="330" width="30" height="20" as="geometry" />
        </mxCell>
        <mxCell id="Zp1FLDR9F9NkYNsXSm17-18" value="否" style="text;html=1;align=center;verticalAlign=middle;resizable=0;points=[];autosize=1;strokeColor=none;fillColor=none;" vertex="1" parent="1">
          <mxGeometry x="225" y="390" width="30" height="20" as="geometry" />
        </mxCell>
        <mxCell id="Zp1FLDR9F9NkYNsXSm17-19" value="是" style="text;html=1;align=center;verticalAlign=middle;resizable=0;points=[];autosize=1;strokeColor=none;fillColor=none;" vertex="1" parent="1">
          <mxGeometry x="225" y="230" width="30" height="20" as="geometry" />
        </mxCell>
      </root>
    </mxGraphModel>
  </diagram>
</mxfile>
